<svg width="90" height="90" viewBox="0 0 90 90" fill="none" xmlns="http://www.w3.org/2000/svg">
<g clip-path="url(#clip0_11_28)">
<rect width="90" height="90" fill="white"/>
<path d="M0 0H90V90H0V0Z" fill="#FFFF00"/>
<path d="M31.1048 42.1678L31.4738 61.9687L52.0126 61.8457L51.1517 42.2908L31.1048 42.1678Z" fill="#FFFF00" stroke="black"/>
<path d="M33.3563 55.0351L27.9322 55.0096L27.9818 60.3158H17.4884L17.4884 76.2047L33.3773 76.2047L33.3563 55.0351Z" fill="#F4E250" stroke="black"/>
<path d="M49.4007 49.7287L54.7937 49.7287L54.7937 44.5712H65.3442V28.6277H49.4007L49.4007 49.7287Z" fill="#F4E250" stroke="black"/>
<path d="M28.1239 49.766L33.4717 49.766L33.4923 39.0291L43.8989 39.0291L43.8989 28.6226L28.1239 28.6226V49.766Z" fill="#F4E250" stroke="black"/>
<path d="M65.2098 49.7768L44.1411 49.7768L44.0654 55.126L54.7385 55.126L54.7385 65.5973L65.2098 65.5973V49.7768Z" fill="#F4E250" stroke="black"/>
<path d="M38.719 76.1992L38.719 65.7295L49.2941 65.6241L49.2941 55.1543L54.5817 55.1543L54.5817 76.1992L38.719 76.1992Z" fill="#F4E250" stroke="black"/>
<path d="M17.5201 39.1961L28.1109 39.1961L28.1268 44.5234L28.1655 49.7641L38.679 49.7641L38.679 55.0139L17.5201 55.0139V39.1961Z" fill="#F4E250" stroke="black"/>
<path d="M38.7171 44.4664L38.7171 60.3939L44.008 60.4122L44.008 44.4664L38.7171 44.4664Z" fill="#F4E250" stroke="black"/>
<path d="M49.3537 44.3565L33.4811 44.3565L33.5177 39.0473L49.3537 39.0473L49.3537 44.3565Z" fill="#F4E250" stroke="black"/>
<path d="M49.262 65.6198L33.4182 65.6198L33.4026 60.3489L49.262 60.3489L49.262 65.6198Z" fill="#F4E250" stroke="black"/>
<path d="M22.8091 70.8044H28.0286L28.0286 65.5848L22.8091 65.5848L22.8091 70.8044Z" fill="#FFFF00"/>
<path d="M28.0286 60.2525L28.0286 65.5848M28.0286 65.5848L28.0286 70.8044H22.8091V65.5848H28.0286Z" stroke="black"/>
<path d="M33.5411 33.8314L33.5411 38.9909L38.7007 38.9909L38.7007 33.8314L33.5411 33.8314Z" fill="#FFFF00" stroke="black"/>
<path d="M59.9164 55.0799L54.7775 55.0799L54.7775 60.2189L59.9164 60.2189L59.9164 55.0799Z" fill="#FFFF00" stroke="black"/>
<path d="M49.3409 70.9236L49.3409 65.5627L44.0622 65.6448L44.0622 70.9236L49.3409 70.9236Z" fill="#FFFF00" stroke="black"/>
<path d="M22.7911 49.6805L28.2527 49.6805L28.1638 44.4679L22.7911 44.4679V49.6805Z" fill="#FFFF00" stroke="black"/>
<path d="M59.9703 39.0874L54.8575 39.0874L54.8575 33.9746L59.9703 33.9746L59.9703 39.0874Z" fill="#FFFF00"/>
<path d="M54.8575 39.0874L59.9703 39.0874L59.9703 33.9746L54.8575 33.9746L54.8575 44.5655" stroke="black"/>
<path d="M18.3267 24.1279V12.5776C18.3267 12.3364 18.4102 12.1292 18.5771 11.9561C18.7441 11.7829 18.9482 11.6963 19.1895 11.6963H26.2681C30.0099 11.6963 31.8809 13.4219 31.8809 16.873C31.8809 20.318 30.0099 22.0405 26.2681 22.0405H21.8242V24.1279C21.8242 24.3691 21.7376 24.5763 21.5645 24.7495C21.3975 24.9165 21.1934 25 20.9521 25H19.208C18.9668 25 18.7596 24.9165 18.5864 24.7495C18.4132 24.5763 18.3267 24.3691 18.3267 24.1279ZM21.8242 19.415H25.2104C26.2495 19.415 27.0381 19.2419 27.5762 18.8955C28.1143 18.543 28.3833 17.8688 28.3833 16.873C28.3833 15.8711 28.1143 15.1969 27.5762 14.8506C27.0381 14.498 26.2495 14.3218 25.2104 14.3218H21.8242V19.415ZM31.8066 24.1279V23.2373C31.8066 22.9961 31.8901 22.792 32.0571 22.625C32.2303 22.458 32.4375 22.3745 32.6787 22.3745H33.4023L35.1279 15.3516C35.7279 12.9147 37.738 11.6963 41.1582 11.6963H46.168C46.4092 11.6963 46.6133 11.7798 46.7803 11.9468C46.9535 12.1138 47.04 12.3179 47.04 12.5591V24.1465C47.04 24.3877 46.9535 24.5918 46.7803 24.7588C46.6133 24.9196 46.4092 25 46.168 25H32.6787C32.4375 25 32.2303 24.9165 32.0571 24.7495C31.8901 24.5763 31.8066 24.3691 31.8066 24.1279ZM36.9741 22.3745H43.5518V14.3218H40.7778C40.1903 14.3218 39.7048 14.4826 39.3213 14.8042C38.9378 15.1258 38.675 15.5742 38.5327 16.1494L36.9741 22.3745ZM49.7026 24.1279V12.5776C49.7026 12.3364 49.7892 12.1292 49.9624 11.9561C50.1356 11.7829 50.349 11.6963 50.6025 11.6963H52.3281C52.5693 11.6963 52.7734 11.7829 52.9404 11.9561C53.1136 12.1292 53.2002 12.3364 53.2002 12.5776V16.7524H59.583V12.5776C59.583 12.3364 59.6696 12.1292 59.8428 11.9561C60.016 11.7829 60.2231 11.6963 60.4644 11.6963H62.1899C62.4435 11.6963 62.6538 11.7829 62.8208 11.9561C62.994 12.1292 63.0806 12.3364 63.0806 12.5776V24.1279C63.0806 24.3691 62.9909 24.5763 62.8115 24.7495C62.6383 24.9165 62.4312 25 62.1899 25H60.4644C60.2231 25 60.016 24.9196 59.8428 24.7588C59.6696 24.5918 59.583 24.3877 59.583 24.1465V19.3779H53.2002V24.1465C53.2002 24.3877 53.1136 24.5918 52.9404 24.7588C52.7734 24.9196 52.5693 25 52.3281 25H50.6025C50.3613 25 50.151 24.9165 49.9717 24.7495C49.7923 24.5763 49.7026 24.3691 49.7026 24.1279ZM64.6113 13.4497V12.5776C64.6113 12.3241 64.6948 12.1138 64.8618 11.9468C65.0288 11.7798 65.2391 11.6963 65.4927 11.6963H77.2656C77.5192 11.6963 77.7295 11.7798 77.8965 11.9468C78.0635 12.1138 78.147 12.3241 78.147 12.5776V13.4497C78.147 13.7033 78.0635 13.9136 77.8965 14.0806C77.7295 14.2414 77.5192 14.3218 77.2656 14.3218H73.1279V24.1465C73.1279 24.3877 73.0413 24.5918 72.8682 24.7588C72.7012 24.9196 72.4971 25 72.2559 25H70.5024C70.2612 25 70.054 24.9196 69.8809 24.7588C69.7139 24.5918 69.6304 24.3877 69.6304 24.1465V14.3218H65.4927C65.2391 14.3218 65.0288 14.2414 64.8618 14.0806C64.6948 13.9136 64.6113 13.7033 64.6113 13.4497Z" fill="#BD2A21"/>
<path d="M69.1504 33.561C69.0501 33.561 69 33.5018 69 33.3833L69 32.6006C69 32.5117 69.0308 32.416 69.0923 32.3135C69.1561 32.2109 69.2324 32.1312 69.3213 32.0742L70.2749 31.4727C70.5073 31.3291 70.6816 31.1844 70.7979 31.0386C70.9163 30.8927 70.9756 30.7173 70.9756 30.5122L70.9756 29.7773L69.3145 29.7773C69.2256 29.7773 69.1504 29.7454 69.0889 29.6816C69.0296 29.6201 69 29.5449 69 29.4561L69 28.8135C69 28.7246 69.0319 28.6483 69.0957 28.5845C69.1618 28.5207 69.2393 28.4888 69.3281 28.4888L73.5767 28.4888C73.6655 28.4888 73.743 28.5207 73.8091 28.5845C73.8752 28.6483 73.9082 28.7246 73.9082 28.8135L73.9082 29.4561C73.9082 29.5449 73.8752 29.6201 73.8091 29.6816C73.743 29.7454 73.6655 29.7773 73.5767 29.7773L71.9395 29.7773L71.9395 30.5122C71.9395 30.7127 71.9941 30.8882 72.1035 31.0386C72.2129 31.1912 72.3895 31.3359 72.6333 31.4727L73.5767 32.0024C73.7954 32.1232 73.9059 32.2873 73.9082 32.4946L73.9082 33.2842C73.9082 33.3936 73.8604 33.4482 73.7646 33.4482C73.7122 33.4482 73.6496 33.4289 73.5767 33.3901L72.2334 32.6484C72.0374 32.5413 71.8757 32.4206 71.748 32.2861C71.6204 32.154 71.5304 31.9808 71.478 31.7666C71.4461 31.917 71.3516 32.0708 71.1943 32.228C71.0371 32.3875 70.8662 32.5277 70.6816 32.6484L69.3213 33.5029C69.2552 33.5417 69.1982 33.561 69.1504 33.561ZM69.3145 33.6499L72.5684 34.5078C73.4548 34.7402 73.8991 35.4967 73.9014 36.7773L73.9014 38.6196C73.9014 38.7039 73.8695 38.7734 73.8057 38.8281C73.7419 38.8851 73.6678 38.9136 73.5835 38.9136L69.3145 38.9136C69.2256 38.9136 69.1504 38.8817 69.0889 38.8179C69.0296 38.7541 69 38.6777 69 38.5889L69 37.9463C69 37.8529 69.0296 37.7754 69.0889 37.7139C69.1504 37.6546 69.2279 37.625 69.3213 37.625L70.1826 37.625L70.1826 35.1948L69.3213 34.9658C69.2279 34.943 69.1504 34.8918 69.0889 34.812C69.0296 34.7323 69 34.6479 69 34.5591L69 33.8857C69 33.7969 69.0251 33.7331 69.0752 33.6943C69.1276 33.6556 69.1732 33.6362 69.2119 33.6362C69.2507 33.6385 69.2848 33.6431 69.3145 33.6499ZM71.1499 35.4478L71.1499 37.625L72.9341 37.625L72.9341 36.6509C72.9341 36.4321 72.8714 36.2407 72.7461 36.0767C72.623 35.9149 72.4567 35.8055 72.2471 35.7485L71.1499 35.4478ZM69.2871 39.4878L72.5684 40.356C73.4548 40.5884 73.8991 41.3437 73.9014 42.6221L73.9014 44.3311C73.9014 44.4108 73.8683 44.478 73.8022 44.5327C73.7362 44.5897 73.661 44.6182 73.5767 44.6182L69.3213 44.6182C69.2324 44.6182 69.1561 44.5874 69.0923 44.5259C69.0308 44.4666 69 44.3926 69 44.3037L69 43.6509C69 43.562 69.0308 43.4857 69.0923 43.4219C69.1561 43.3604 69.2324 43.3296 69.3213 43.3296L72.9341 43.3296L72.9341 42.4956C72.9341 42.2769 72.8714 42.0854 72.7461 41.9214C72.623 41.7596 72.4567 41.6502 72.2471 41.5933L69.3213 40.8105C69.2279 40.7878 69.1504 40.7365 69.0889 40.6567C69.0296 40.577 69 40.4927 69 40.4038L69 39.71C69 39.6302 69.0251 39.571 69.0752 39.5322C69.1253 39.4958 69.1675 39.4775 69.2017 39.4775C69.2358 39.4798 69.2643 39.4832 69.2871 39.4878ZM69.3281 45.5991L73.5698 45.5991C73.6632 45.5991 73.7419 45.6299 73.8057 45.6914C73.8695 45.7529 73.9014 45.8281 73.9014 45.917L73.9014 47.3081C73.9014 47.397 73.8695 47.4813 73.8057 47.561C73.7419 47.6408 73.6655 47.6943 73.5767 47.7217L70.6577 48.73L73.5767 49.7383C73.6655 49.7656 73.7419 49.8192 73.8057 49.8989C73.8695 49.9787 73.9014 50.063 73.9014 50.1519L73.9014 51.543C73.9014 51.6318 73.8695 51.7059 73.8057 51.7651C73.7419 51.8267 73.6632 51.8574 73.5698 51.8574L69.3281 51.8574C69.2347 51.8574 69.1561 51.8255 69.0923 51.7617C69.0308 51.7002 69 51.625 69 51.5361L69 50.9209C69 50.832 69.0308 50.7557 69.0923 50.6919C69.1561 50.6304 69.2347 50.5996 69.3281 50.5996L72.6675 50.5996L69.3076 49.3931C69.2233 49.3612 69.1504 49.3053 69.0889 49.2256C69.0296 49.1458 69 49.0615 69 48.9727L69 48.4839C69 48.395 69.0296 48.3107 69.0889 48.231C69.1504 48.1535 69.2233 48.0977 69.3076 48.0635L72.6675 46.8604L69.3281 46.8604C69.2347 46.8604 69.1561 46.8285 69.0923 46.7646C69.0308 46.7031 69 46.6279 69 46.5391L69 45.9238C69 45.835 69.0308 45.7586 69.0923 45.6948C69.1561 45.631 69.2347 45.5991 69.3281 45.5991ZM69.3281 52.8384L73.5767 52.8384C73.6701 52.8384 73.7476 52.8691 73.8091 52.9307C73.8706 52.9922 73.9014 53.0697 73.9014 53.1631L73.9014 53.8057C73.9014 53.8945 73.8695 53.9697 73.8057 54.0312C73.7419 54.0951 73.6655 54.127 73.5767 54.127L72.2334 54.127L72.2334 55.5352C72.2334 56.0706 72.091 56.515 71.8062 56.8682C71.5213 57.2214 71.1248 57.3979 70.6167 57.3979C70.1086 57.3979 69.7121 57.2214 69.4272 56.8682C69.1424 56.515 69 56.0706 69 55.5352L69 53.146C69 53.064 69.0319 52.9922 69.0957 52.9307C69.1618 52.8691 69.2393 52.8384 69.3281 52.8384ZM69.9673 54.127L69.9673 55.5352C69.9673 55.918 70.1838 56.1094 70.6167 56.1094C71.0519 56.1094 71.2695 55.918 71.2695 55.5352L71.2695 54.127L69.9673 54.127ZM69.3145 58.0815L73.5767 58.0815C73.6655 58.0815 73.7419 58.1134 73.8057 58.1772C73.8695 58.241 73.9014 58.3174 73.9014 58.4062L73.9014 59.0557C73.9014 59.1491 73.8695 59.2266 73.8057 59.2881C73.7419 59.3519 73.6655 59.3838 73.5767 59.3838L69.3213 59.3838C69.2324 59.3838 69.1561 59.3507 69.0923 59.2847C69.0308 59.2209 69 59.1445 69 59.0557L69 58.4062C69 58.3174 69.0296 58.241 69.0889 58.1772C69.1504 58.1134 69.2256 58.0815 69.3145 58.0815ZM69.1504 65.437C69.0501 65.437 69 65.3778 69 65.2593L69 64.4766C69 64.3877 69.0308 64.292 69.0923 64.1895C69.1561 64.0869 69.2324 64.0072 69.3213 63.9502L70.2749 63.3486C70.5073 63.2051 70.6816 63.0604 70.7979 62.9146C70.9163 62.7687 70.9756 62.5933 70.9756 62.3882L70.9756 61.6533L69.3145 61.6533C69.2256 61.6533 69.1504 61.6214 69.0889 61.5576C69.0296 61.4961 69 61.4209 69 61.332L69 60.6895C69 60.6006 69.0319 60.5243 69.0957 60.4604C69.1618 60.3966 69.2393 60.3647 69.3281 60.3647L73.5767 60.3647C73.6655 60.3647 73.743 60.3966 73.8091 60.4604C73.8752 60.5243 73.9082 60.6006 73.9082 60.6895L73.9082 61.332C73.9082 61.4209 73.8752 61.4961 73.8091 61.5576C73.743 61.6214 73.6655 61.6533 73.5767 61.6533L71.9395 61.6533L71.9395 62.3882C71.9395 62.5887 71.9941 62.7642 72.1035 62.9146C72.2129 63.0672 72.3895 63.2119 72.6333 63.3486L73.5767 63.8784C73.7954 63.9992 73.9059 64.1632 73.9082 64.3706L73.9082 65.1602C73.9082 65.2695 73.8603 65.3242 73.7646 65.3242C73.7122 65.3242 73.6496 65.3049 73.5767 65.2661L72.2334 64.5244C72.0374 64.4173 71.8756 64.2965 71.748 64.1621C71.6204 64.0299 71.5304 63.8568 71.478 63.6426C71.4461 63.793 71.3516 63.9468 71.1943 64.104C71.0371 64.2635 70.8662 64.4036 70.6816 64.5244L69.3213 65.3789C69.2552 65.4176 69.1982 65.437 69.1504 65.437ZM69.3213 65.9292L73.5767 65.9292C73.6701 65.9292 73.7476 65.96 73.8091 66.0215C73.8706 66.083 73.9014 66.1605 73.9014 66.2539L73.9014 66.8555C73.9014 66.9443 73.8706 67.0195 73.8091 67.0811C73.7476 67.1449 73.6724 67.1768 73.5835 67.1768L70.1621 67.1768L73.5767 69.1216C73.6655 69.174 73.7419 69.2458 73.8057 69.3369C73.8695 69.4281 73.9014 69.5124 73.9014 69.5898L73.9014 70.5981C73.9014 70.687 73.8695 70.7622 73.8057 70.8237C73.7419 70.8853 73.6655 70.916 73.5767 70.916L69.3213 70.916C69.2324 70.916 69.1561 70.8841 69.0923 70.8203C69.0308 70.7565 69 70.6802 69 70.5913L69 69.9897C69 69.9009 69.0308 69.8245 69.0923 69.7607C69.1561 69.6992 69.2324 69.6685 69.3213 69.6685L72.4932 69.6685L69.3213 67.8843C69.2324 67.8319 69.1561 67.7578 69.0923 67.6621C69.0308 67.5664 69 67.4741 69 67.3853L69 66.2539C69 66.165 69.0308 66.0887 69.0923 66.0249C69.1561 65.9611 69.2324 65.9292 69.3213 65.9292ZM69.3213 71.897L73.5767 71.897C73.6701 71.897 73.7476 71.9277 73.8091 71.9893C73.8706 72.0508 73.9014 72.1283 73.9014 72.2217L73.9014 72.8232C73.9014 72.9121 73.8706 72.9873 73.8091 73.0488C73.7476 73.1126 73.6724 73.1445 73.5835 73.1445L70.1621 73.1445L73.5767 75.0894C73.6655 75.1418 73.7419 75.2135 73.8057 75.3047C73.8695 75.3958 73.9014 75.4801 73.9014 75.5576L73.9014 76.5659C73.9014 76.6548 73.8695 76.73 73.8057 76.7915C73.7419 76.853 73.6655 76.8838 73.5767 76.8838L69.3213 76.8838C69.2324 76.8838 69.1561 76.8519 69.0923 76.7881C69.0308 76.7243 69 76.6479 69 76.5591L69 75.9575C69 75.8687 69.0308 75.7923 69.0923 75.7285C69.1561 75.667 69.2324 75.6362 69.3213 75.6362L72.4932 75.6362L69.3213 73.8521C69.2324 73.7996 69.1561 73.7256 69.0923 73.6299C69.0308 73.5342 69 73.4419 69 73.353L69 72.2217C69 72.1328 69.0308 72.0565 69.0923 71.9927C69.1561 71.9289 69.2324 71.897 69.3213 71.897Z" fill="#058E8E"/>
</g>
<defs>
<clipPath id="clip0_11_28">
<rect width="90" height="90" fill="white"/>
</clipPath>
</defs>
</svg>
